<?xml version="1.0" encoding="utf-8"?>
<svg version="1.1" id="Layer_1" x="0px" y="0px" viewBox="0 0 512 512" style="enable-background:new 0 0 512 512;" xmlns="http://www.w3.org/2000/svg">
  <g style="" transform="matrix(0.915742, 0, 0, 0.881375, 20.150999, 32.354767)">
    <g>
      <path d="M 403.906 220.416 C 404.695 218.176 405.335 215.851 405.335 213.333 C 405.335 129.066 395.863 50.922 330.498 43.413 L 332.973 28.053 C 333.89 22.314 332.418 16.426 328.898 11.776 C 325.378 7.125 320.109 4.139 314.327 3.456 C 293.655 1.109 274.882 0 255.255 0 C 235.458 0 215.042 1.131 196.226 3.264 C 190.359 3.925 185.047 6.997 181.527 11.712 C 178.007 16.448 176.578 22.421 177.623 28.224 L 180.354 43.499 C 115.991 51.755 106.669 129.536 106.669 213.334 C 106.669 214.251 107.074 215.041 107.181 215.915 C 79.981 248.128 64.002 289.984 64.002 336.918 C 64.002 403.947 100.055 466.923 158.082 501.249 C 169.943 508.289 183.853 512.001 198.295 512.001 L 313.687 512.001 C 328.13 512.001 342.018 508.31 353.858 501.292 C 412.845 466.412 448.898 402.433 447.981 334.316 C 447.426 292.181 430.658 252.309 403.906 220.416 Z M 257.347 166.722 C 217.326 166.722 180.332 160.149 150.167 178.944 C 154.242 94.165 173.57 86.144 187.863 85.44 L 192.343 110.443 C 194.284 121.366 200.4 119.838 211.664 118.899 C 216.592 118.43 225.602 117.039 230.999 116.292 C 239.511 115.119 247.68 116.479 254.635 116.479 C 262.272 116.479 275.827 116.428 284.745 117.623 C 290.036 118.348 304.684 121.372 309.595 120.166 C 317.117 118.319 308.961 118.977 309.227 119.629 C 310.276 122.205 318.039 120.492 319.725 110.081 L 323.714 85.42 C 338.242 85.996 358.274 93.527 362.007 182.551 C 331.287 161.792 295.449 166.722 257.347 166.722 Z" style="fill: rgb(255, 255, 255); stroke: rgb(0, 0, 0);"/>
    </g>
  </g>
  <g/>
  <g/>
  <g/>
  <g/>
  <g/>
  <g/>
  <g/>
  <g/>
  <g/>
  <g/>
  <g/>
  <g/>
  <g/>
  <g/>
  <g/>
</svg>